<svg width="484" height="140" viewBox="0 0 484 140" fill="none" xmlns="http://www.w3.org/2000/svg">
<rect width="115" height="140" rx="20" fill="white"/>
<rect x="123" width="115" height="140" rx="20" fill="white"/>
<rect x="246" width="115" height="140" rx="20" fill="white"/>
<rect x="369" width="115" height="140" rx="20" fill="white"/>
<path d="M24.8633 26.6875H58.4375C65 26.6875 70.7031 27.6641 75.5469 29.6172C80.3906 31.5703 84.1211 34.4609 86.7383 38.2891C89.3945 42.1172 90.7227 46.8438 90.7227 52.4688C90.7227 57.3516 89.9609 61.4336 88.4375 64.7148C86.9141 67.9961 84.7852 70.7109 82.0508 72.8594C79.3555 74.9688 76.2109 76.707 72.6172 78.0742L65.8789 81.8828H37.6953L37.5781 66.0039H58.4375C61.0547 66.0039 63.2227 65.5352 64.9414 64.5977C66.6602 63.6602 67.9492 62.332 68.8086 60.6133C69.707 58.8555 70.1562 56.7656 70.1562 54.3438C70.1562 51.8828 69.707 49.7734 68.8086 48.0156C67.9102 46.2578 66.582 44.9102 64.8242 43.9727C63.1055 43.0352 60.9766 42.5664 58.4375 42.5664H45.4297V112H24.8633V26.6875ZM71.5625 112L52.6953 74.2656L74.4922 74.1484L93.5938 111.121V112H71.5625Z" fill="#B62030"/>
<path d="M190.695 26.6875V112H170.188V26.6875H190.695Z" fill="#B62030"/>
<path d="M304.965 83.0547H283.754V67.1758H304.965C307.855 67.1758 310.199 66.6875 311.996 65.7109C313.793 64.7344 315.102 63.3867 315.922 61.668C316.781 59.9102 317.211 57.9375 317.211 55.75C317.211 53.4062 316.781 51.2383 315.922 49.2461C315.102 47.2539 313.793 45.6523 311.996 44.4414C310.199 43.1914 307.855 42.5664 304.965 42.5664H291.488V112H270.922V26.6875H304.965C311.801 26.6875 317.68 27.9375 322.602 30.4375C327.562 32.9375 331.371 36.375 334.027 40.75C336.684 45.0859 338.012 50.0469 338.012 55.6328C338.012 61.1406 336.684 65.9453 334.027 70.0469C331.371 74.1484 327.562 77.3516 322.602 79.6562C317.68 81.9219 311.801 83.0547 304.965 83.0547Z" fill="#B62030"/>
<path d="M456.852 96.1797V112H413.727V96.1797H456.852ZM421.051 26.6875V112H400.484V26.6875H421.051Z" fill="#B62030"/>
</svg>
